<svg version="1.1" id="Layer_1" xmlns="http://www.w3.org/2000/svg" xmlns:xlink="http://www.w3.org/1999/xlink" x="0px" y="0px"
	 width="100%" viewBox="0 0 189 178" enable-background="new 0 0 189 178" xml:space="preserve">
<path fill="none" opacity="1.000000" stroke="#000000" stroke-linecap="round" stroke-linejoin="round" stroke-width="3.000000"
	d="
M122.000000,24.500000 
	C119.685677,19.722643 114.510368,17.445507 109.500000,18.999998 
	C105.254234,20.317268 102.496002,26.523289 103.500000,32.500000 
	C104.182266,36.561520 108.996147,40.000000 114.000000,40.000000 
	C119.242760,40.000000 120.467522,38.856888 121.547935,32.728073 
	C119.271439,31.966635 117.174683,30.471949 114.500000,31.000000 
"/>
<path fill="none" opacity="1.000000" stroke="#000000" stroke-linecap="round" stroke-linejoin="round" stroke-width="2.000000"
	d="
M120.500000,75.500000 
	C106.562386,66.325455 92.213623,65.990410 77.500000,73.500000 
"/>
<path fill="none" opacity="1.000000" stroke="#000000" stroke-linecap="round" stroke-linejoin="round" stroke-width="3.000000"
	d="
M20.500000,72.000000 
	C21.883469,76.753387 25.929506,77.926964 30.004404,78.983009 
	C33.077137,79.779335 34.608662,77.655998 35.985596,75.490837 
	C37.305779,73.414917 37.043591,71.318222 35.469566,69.526741 
	C34.465466,68.383904 33.268761,67.337761 31.982252,66.528206 
	C26.532524,63.098892 22.693258,64.726845 20.000000,71.500000 
"/>
<path fill="none" opacity="1.000000" stroke="#000000" stroke-linecap="round" stroke-linejoin="round" stroke-width="3.000000"
	d="
M181.500000,104.500000 
	C184.840027,98.784592 184.521133,96.339729 179.766190,92.827286 
	C177.903366,94.056030 175.758347,95.031898 175.986740,98.001022 
	C176.217316,100.998322 175.478012,103.690529 172.466370,104.917465 
	C171.446915,105.332809 169.779633,105.512474 169.013184,103.993347 
	C167.736526,101.462952 165.863785,99.047592 167.914612,95.943581 
	C168.280548,95.389740 168.399841,94.533249 169.000000,94.000000 
"/>
<path fill="none" opacity="1.000000" stroke="#000000" stroke-linecap="round" stroke-linejoin="round" stroke-width="3.000000"
	d="
M18.000000,101.500000 
	C17.565128,98.658043 19.264347,96.155342 19.388409,93.494797 
	C19.536846,90.311501 19.118248,87.133110 15.021923,85.925629 
	C11.407893,84.860313 9.987369,86.940567 9.061789,89.522156 
	C7.803984,93.030373 6.656244,96.650093 7.501775,100.495720 
	C14.167700,101.660774 20.833851,102.830391 27.500000,104.000000 
"/>
<path fill="none" opacity="1.000000" stroke="#000000" stroke-linecap="round" stroke-linejoin="round" stroke-width="3.000000"
	d="
M169.500000,74.000000 
	C170.778030,77.685066 171.640472,81.568031 174.502518,84.855186 
	C177.357101,82.812683 180.164215,81.125061 178.509506,76.996185 
	C177.321442,74.031700 175.093842,71.790367 172.046982,72.663879 
	C168.636673,73.641594 164.164444,73.982956 163.056107,78.513725 
	C162.066315,82.559906 164.495636,85.252182 167.500000,87.500000 
"/>
<path fill="none" opacity="1.000000" stroke="#000000" stroke-linecap="round" stroke-linejoin="round" stroke-width="3.000000"
	d="
M58.000000,31.500000 
	C58.648682,36.191322 62.323715,39.183060 64.598007,42.940681 
	C66.068916,45.370934 67.081093,47.884380 68.016373,50.546589 
	C66.042313,54.552284 63.110828,56.548790 58.500000,55.000000 
"/>
<path fill="none" opacity="1.000000" stroke="#000000" stroke-linecap="round" stroke-linejoin="round" stroke-width="3.000000"
	d="
M66.500000,21.000000 
	C69.944633,25.962898 70.116325,32.022583 72.106110,37.461178 
	C72.722153,39.144974 71.806541,41.763397 74.500000,42.500000 
"/>
<path fill="none" opacity="1.000000" stroke="#000000" stroke-linecap="round" stroke-linejoin="round" stroke-width="3.000000"
	d="
M84.000000,39.500000 
	C83.166664,36.166668 82.506691,32.777874 81.461967,29.512167 
	C79.596664,23.681408 76.565399,23.249176 72.000000,28.000000 
"/>
<path fill="none" opacity="1.000000" stroke="#000000" stroke-linecap="round" stroke-linejoin="round" stroke-width="2.000000"
	d="
M75.500000,123.500000 
	C78.188560,131.536957 75.745766,138.352173 70.500000,144.500000 
"/>
<path fill="none" opacity="1.000000" stroke="#000000" stroke-linecap="round" stroke-linejoin="round" stroke-width="2.000000"
	d="
M66.500000,84.500000 
	C61.182793,94.144966 62.727646,103.434929 68.020592,112.487961 
	C69.043991,114.238388 70.333328,115.833336 71.500000,117.500000 
"/>
<path fill="none" opacity="1.000000" stroke="#000000" stroke-linecap="round" stroke-linejoin="round" stroke-width="3.000000"
	d="
M157.500000,69.500000 
	C160.333328,67.000000 163.165314,64.498459 166.000626,62.000717 
	C167.209290,60.935963 168.710373,59.785625 167.930588,58.030846 
	C167.129715,56.228622 166.019470,54.386143 163.499283,54.480888 
	C162.820862,54.506390 162.002838,54.822006 161.500000,54.000000 
"/>
<path fill="none" opacity="1.000000" stroke="#000000" stroke-linecap="round" stroke-linejoin="round" stroke-width="2.000000"
	d="
M122.500000,77.500000 
	C126.970276,83.533722 127.875114,90.024559 125.000000,97.000000 
"/>
<path fill="none" opacity="1.000000" stroke="#000000" stroke-linecap="round" stroke-linejoin="round" stroke-width="3.000000"
	d="
M32.000000,54.000000 
	C34.333332,56.166668 36.502357,58.562176 39.068462,60.404652 
	C40.375896,61.343403 41.370239,63.435513 44.068905,62.143974 
	C46.557713,60.952873 47.545025,59.535198 47.524578,56.999802 
	C47.520561,56.501179 47.833332,56.000000 48.000000,55.500000 
"/>
<path fill="none" opacity="1.000000" stroke="#000000" stroke-linecap="round" stroke-linejoin="round" stroke-width="3.000000"
	d="
M58.000000,34.500000 
	C54.568558,34.640400 50.450626,33.552074 49.998375,38.999866 
	C49.668739,42.970612 53.715210,49.474545 57.004364,49.971104 
	C60.740078,50.535076 61.905479,47.753242 63.000000,45.000000 
"/>
<path fill="none" opacity="1.000000" stroke="#000000" stroke-linecap="round" stroke-linejoin="round" stroke-width="3.000000"
	d="
M140.000000,42.000000 
	C138.333328,41.000000 136.676559,39.983028 134.997574,39.004162 
	C132.734695,37.684891 130.691147,38.315681 129.037552,40.036087 
	C128.052597,41.060825 127.391884,42.903400 128.104584,43.927197 
	C129.557327,46.014088 131.777145,47.993538 134.448593,47.301544 
	C135.594070,47.004826 136.768280,46.605648 138.000000,46.500000 
"/>
<path fill="none" opacity="1.000000" stroke="#000000" stroke-linecap="round" stroke-linejoin="round" stroke-width="3.000000"
	d="
M139.500000,51.500000 
	C136.309387,50.404789 138.416046,48.222908 138.530273,46.502010 
	C138.633377,44.949123 139.887131,43.654266 140.663269,42.622864 
	C142.496414,40.186813 144.140533,37.788338 142.406555,35.059372 
	C140.325760,31.784559 136.943802,31.669561 133.500000,33.000000 
"/>
<path fill="none" opacity="1.000000" stroke="#000000" stroke-linecap="round" stroke-linejoin="round" stroke-width="3.000000"
	d="
M156.000000,44.000000 
	C151.659576,47.116131 148.330490,51.496437 143.500000,54.000000 
"/>
<path fill="none" opacity="1.000000" stroke="#000000" stroke-linecap="round" stroke-linejoin="round" stroke-width="3.000000"
	d="
M155.500000,46.000000 
	C157.901566,46.805489 160.524963,47.395432 160.984589,50.502281 
	C161.395889,53.282345 159.388596,54.551476 157.530975,56.038685 
	C155.234833,57.876968 153.166672,60.000000 151.000000,62.000000 
"/>
<path fill="none" opacity="1.000000" stroke="#000000" stroke-linecap="round" stroke-linejoin="round" stroke-width="2.000000"
	d="
M132.500000,107.500000 
	C134.807358,110.008873 132.479218,111.835876 130.947250,112.339539 
	C127.551788,113.455841 127.911385,115.893234 127.404205,118.481224 
	C126.541626,122.882774 127.605988,127.166664 127.500000,131.500000 
"/>
<path fill="none" opacity="1.000000" stroke="#000000" stroke-linecap="round" stroke-linejoin="round" stroke-width="3.000000"
	d="
M40.000000,46.000000 
	C43.500000,49.166668 47.000000,52.333332 50.500000,55.500000 
"/>
<path fill="none" opacity="1.000000" stroke="#000000" stroke-linecap="round" stroke-linejoin="round" stroke-width="3.000000"
	d="
M30.500002,88.000000 
	C27.000002,89.500000 23.500002,91.000000 20.000002,92.500000 
"/>
</svg>